<svg width="200" height="200" viewBox="0 0 200 200" fill="none"><path fill-rule="evenodd" clip-rule="evenodd" d="M177.634 169.627c-56.552.024-113.65.115-170.538.253-.661 0-.721 1.038-.043 1.038 56.349.174 114.017.078 170.521.066.852 0 .936-1.357.06-1.357ZM119.876 159.474c-1.861-.828-7.2-1.458-9.4-1.41-3.348.066-5.659 1.242-8.785 4.9-.348.4.162.985.571.6 3.6-3.282 5.07-4.458 8.484-4.446a35.94 35.94 0 0 1 8.966 1.35c.6.156.654-.792.168-1l-.004.006Zm4.542 8.089c-.209-.546-3.558-.21-7.243-2.67a.435.435 0 0 0-.549.102.435.435 0 0 0 .01.558 11.272 11.272 0 0 0 7.284 2.82.55.55 0 0 0 .562-.534.553.553 0 0 0-.064-.276ZM118.9 162.6a.46.46 0 0 1 .132.57.46.46 0 0 1-.132.162c-.475.324-4.393.288-4.633 1.2-.03.997.163 1.987.565 2.9a.43.43 0 0 1-.253.558.432.432 0 0 1-.558-.252c-.516-1.14-1.608-3.54-.06-4.429.822-.474 4.171-1.241 4.957-.725l-.018.016Zm-6.5-1.8c1.2-.408 2.461.444.378 1.069-2.694.8-3.379 4.314-4.027 4.878-.228.2-.75.06-.689-.252a7.506 7.506 0 0 1 4.338-5.701v.006Zm-1.8-.774a.487.487 0 0 1 .2.936c-2.754.8-4.482 1.591-6.336 3.991-.265.348-.883-.054-.643-.426a9.847 9.847 0 0 1 6.764-4.531l.015.03Z" fill="#111"></path><path d="M125.265 100.852c-1.435 1.272-4.075 4.146-6.193 3.384-2.118-.762-3.155-4.3-3.805-6.235a.379.379 0 0 0-.732.162c.5 2.286 1.914 6.181 4.314 7.022 1.435.5 2.833-.223 4.034-.979a54.026 54.026 0 0 1-.223 6.524c-.054.437.738.443.81 0 .33-2.342.405-4.713.225-7.072v-.022.022c3.314-2.403 2.074-3.258 1.57-2.806Z" fill="#111"></path><path d="M121.1 99.718c1.718-.511 2.877-2.541 2.275-3.139-.406-.4-.72.186-.81.516a3.242 3.242 0 0 1-1.5 1.8c-.859.415-.365.936.035.823ZM115.081 94.28c.677-.067.177-1.9-.3-1.8-.663.146-.259 1.856.3 1.8Z" fill="#111"></path><path d="M139.9 97.371c-1.854-.444-5.2-2.875-5.461-5.635 3.714.378 5.479-.377 6.937-1.248 2.4-1.428-1.063-1.1-2.88-1.512-5.671-1.332-3.661-11.491-15.219-12.59-11.558-1.099-10.377 8.314-17.577 6.985-1.123-.21-2.647-.972-1.5.51a11.15 11.15 0 0 0 8.606 4.1c.005.452.054.902.144 1.345a.387.387 0 0 0 .381.336.383.383 0 0 0 .381-.336 6.722 6.722 0 0 0 0-1.3 18.255 18.255 0 0 0 8.983-2.682 16.01 16.01 0 0 0 2.143 2.581c-3.559.642-11.4 2.184-14.33 3.48a.86.86 0 0 0-.367.93 20.563 20.563 0 0 0 2.4 4.339c.523.69 3.235 0 3.985-.342 0 1.1.126 1.236 1.837.87 1.711-.366 1.3-1.086.8-1.032-.6.065-1.123.21-1.752.258-.014-1.42.085-2.838.294-4.242.379.958.836 1.882 1.367 2.765a1.058 1.058 0 0 0 1.039.379c.546 0 3.636-.6 3.81-1.093.402-1.663.563-3.374.481-5.083a8.032 8.032 0 0 0 1.44-.269c.318.288 2.82 2.646 3.258 1.926 3-4.878 3.8 5.1.133 4.8-.283 0-.721.031-.655.427.708 4.584 1.746 8.329 2.472 13.988.066.529.966.378.924-.15a110.64 110.64 0 0 0-1.836-11.168c2.61 1.158 8.053 1.128 10.7.307 2.807-.869.911-1.199-.938-1.644Zm-23.272-2.2a9.325 9.325 0 0 1-3.36.708 18.822 18.822 0 0 1-2.143-3.6 45.218 45.218 0 0 1 5.786-1.6 42.92 42.92 0 0 0-.288 4.49l.005.002Zm6.547-1.656c-1.06.428-2.168.726-3.3.888a25.839 25.839 0 0 1-1.961-3.949 41.893 41.893 0 0 1 5.569-1.14 27.2 27.2 0 0 1-.313 4.199l.005.002Z" fill="#111"></path><path d="M120.8 92.973c.45-.259.2-1.877-.462-1.645-.564.199-.126 1.981.462 1.645Z" fill="#111"></path><path fill-rule="evenodd" clip-rule="evenodd" d="M106.65 68.549c-5.068 4.6-10.406 9.283-16.8 11.93a21.54 21.54 0 0 1-9.655 1.914c-10.142-.852-.822-12.128.379-16.256 2.447-8.4-10.2-5.539-14.313-4.609-10.046 2.256-22.3 8.023-29.5 15.572-.27.282.168.738.474.5 6.223-4.932 10.087-7.945 17.576-11.215 3.427-1.507 29.23-11.042 24.46.408-1.4 3.348-7 10.765-3.841 14.582 2.785 3.36 9.3 2 12.795.852 7.314-2.4 13.465-7.687 19.082-12.8.471-.464-.148-1.341-.657-.878Z" fill="#111"></path><path fill-rule="evenodd" clip-rule="evenodd" d="M38.25 78.583c-.71-1.067-1.602-2-2.638-2.755-1.026-.486-4.327 2.556-3.925 3.336.3.6 2.4 3.349 2.911 3.391.511.042 1.158-.6 2.964-1.962.714-.563 1.438-.887.688-2.01Zm41.85 2.946c-.847-1.53-2.4-1.536-3.732-.666-1.417.954-.9 2.952.4 3.744a2.37 2.37 0 0 0 3.332-3.078Zm11.5-11.144a2.148 2.148 0 0 0-2.683-1.085c-2.544-2.112-5.232-4.459-7.855-6.691.972-2.3-1.152-4.639-3.456-2.94-2.623-2.233-4.9-3.913-7.981-6.559a2.269 2.269 0 0 0-2.119-3.4c-2.754.276-3.564 2.292-2.712 3.685.96 1.56 3.144 1.428 4.441.4 2.514 2.5 5.07 4.512 7.657 6.7-1.074 2.034 1.4 4.668 3.516 3 2.587 2.184 5.137 4.4 7.753 6.553-.42.336-.924 3.493 1.8 3.565 1.764.054 2.4-1.453 1.644-3.2l-.005-.028ZM68.436 52.869c-1.675 1.714-3.834-.312-2.01-1.663 1.698-1.254 3.046.603 2.01 1.663Zm22.354 19.2c-.956 1.516-3.373-.942-1.3-1.878.988-.442 1.643 1.335 1.3 1.88v-.002Zm18.386-8.083c-.484-.3-3.888 2.707-3.978 3.067-.162.666 1.056 1.722 1.392 2.058.84.828 1.7 2.178 2.754 1.2.9-.846 1.8-1.71 2.653-2.574.534-.526-2.49-3.546-2.821-3.749v-.002Zm-.21 1.14 1.921 2.221-2.245 2.268-2.562-2.4 2.886-2.089ZM35.078 76.7l2.4 2.64-2.718 2.153a14.751 14.751 0 0 0-2.275-2.455l2.593-2.338ZM121.166 33.18c-.42-3.721-1.488-4.2-5.149-4.2-5.175-.01-10.345.299-15.482.925-4.867.6-4.327 1.9-3.888 6.228.408 4.051 1.2 12.374 2.4 15.555 1.116 3 1.4 3.948 4.519 3.726a119.429 119.429 0 0 0 15.11-2.064c3.654-.81 3.15-3.547 3.108-6.943-.142-.191.231-4.499-.618-13.227Zm-1.2 18.4c-1.434 1.308-14.936 2.628-17.025 2.736a1.938 1.938 0 0 1-1.926-.732c-1.644-2.28-3.072-15.122-3.426-18.969-.3-3.276.15-3.24 2.958-3.6 5.446-.68 10.931-.99 16.418-.93 3.1.126 2.9 1.3 3.114 3.258.494 4.806.695 9.638.6 14.468 0 1.14.253 2.923-.7 3.793l-.013-.024Z" fill="currentColor"></path><path fill-rule="evenodd" clip-rule="evenodd" d="M114.685 35.508c-2.149-.308-9.229.4-11.743.54-1.327.078-.132 3-.043 3.193a.482.482 0 0 0 .782.069.484.484 0 0 0 .113-.279 6.053 6.053 0 0 0-.145-1.8c1.621-.06 3.229-.216 4.855-.294.48 3.907.6 7.657 1.291 11.57a6.698 6.698 0 0 0-1.536.471c-1.076.534-.033 1 .125.981.87-.126 5.251-.474 5.161-1.32-.09-.846-1.8-.45-2.562-.342-.6-3.354-.7-7.723-1.374-11.5 1.667-.1 3.162 0 4.8-.114 0 2.851 1.092 1.549 1.11 1.435.258-1.86.438-2.427-.834-2.61Z" fill="#111"></path><path fill-rule="evenodd" clip-rule="evenodd" d="M132.364 168.2c3.222-.492 12.26-4.524 16.088-9.679a80.292 80.292 0 0 1-.169 9.151c-4.818.611-14.183.428-15.919.528Z" fill="currentColor"></path><path fill-rule="evenodd" clip-rule="evenodd" d="M150.222 124.171c-2.12-6.3-6.067-11.294-16.448-14.48-3.643 5.689-14.252 5.3-12.746 0-10.586 2.112-17.168 9.8-23.823 17.5.564 3.481 1.2 9.548 1.53 13.64.51 6.308-1.95 7.741-5.8 8.81-2.67.738-11.96.93-18.807.96a54.203 54.203 0 0 1-9.115 5.863c3.18-.534 8.713 1.8 11.21 5.61 6.649-1.3 19.73-9.265 24.765-15.794a125.858 125.858 0 0 1 8.161-26.452c.21-.462.864-.119.7.336-4.8 13.2-9.241 27.712-9.433 41.91a18.98 18.98 0 0 1 7.609-5.082c1.848-.456 9.175.342 12.9 1.734 4.2-2.3 13.2-7.111 15.206-11.15 1.626-3.288-1.626-15.932-2.658-19.484-.132-.469.534-.745.714-.277 1.8 4.675 3.546 12.494 3.546 17.524 0 5.658-11.029 11.947-15.458 14.053 2.791 1.764 3.757 5.353 3.757 8.624 7.429-.523 20.277-5.606 25.281-16.839 2.756-6.189 1.026-20.719-1.091-27.006Z" fill="currentColor"></path><path fill-rule="evenodd" clip-rule="evenodd" d="M57.425 115.1c-.74-2.855-2.4-5.82-5.557-6.324-3.45-.552-5.125 1.908-5.293 5.053-.252 4.53 1.537 9.4 5.089 10.693 5.929 2.157 6.936-4.887 5.761-9.422Zm16.364 52-10.267-.2c-6.151-.108-6.043-3.048-5.611-8.4.66-8.209 2.9-16.334 4.645-24.376.24-1.11.12-1.3-1.291-1.356-1.8-.072-6.054 0-9.085 0-.456 0-.744.678.156.768 1.2.12 6.961.246 9.344.312-2.167 8.072-4.3 16.371-4.963 24.7-.36 4.531-.564 9.085 5.527 9.475 2.01.132 9.181.132 11.635.066 2.677-.066 1.6-.978-.09-1.008v.019Zm-24.321-33.106c.294-.558 1.2-.258.948.361-3.223 7.765-10.238 21.1-10.52 28.54-.156 4.134 1.657 3.9 5.065 3.966 3.277.06 6.661 0 9.914.1 2.034.078 1.914 1.23 0 1.2-3.331-.078-6.655-.12-9.986-.186-3.99-.078-6.409-.186-6.181-5.088.312-6.775 7.7-23.116 10.8-28.883l-.04-.01Zm55.394 33.047c1.71.762 2.226 2.293-.246 1.2a78.155 78.155 0 0 0-8.954-3.384c-1.716-.528-.858 0-3.6 4.075a.436.436 0 0 1-.591.164.43.43 0 0 1-.165-.591c.6-1.314 1.3-2.61 1.944-3.912-4.975.138-27.97.378-32.165-.252-.492-.072-.48-.858 0-.864 10.01-.078 22.768.108 32.951-.054 2.479-.036 8.359 2.55 10.8 3.642l.026-.024Zm-8.149-32.4c2.022 11.635.6 13.6-11.012 14.084-7.394.405-14.805.405-22.2 0-.6-.048-.48-.877.078-.889 7.4-.168 14.768.1 22.2-.222 8.437-.372 12.062-.654 10.2-10.915-2.082-11.438-3.432-23.151-5.364-34.8-2.095-12.6-3.547-11.4-15.171-11.4-15.3 0-32.128 1.146-46.284 2.4-8.287.738-7.033 6.4-6.571 12.463.828 11.036 2.19 21.946 3.51 32.933 1.2 9.818 3.811 8.9 8.4 9.109 1.83.084 5.43-.2 7.069 0 .414.048.858.5 0 .7-.708.161-8.036.258-9.236.27-6.085.084-6.289-4.645-6.985-9.332-1.692-11.341-3-22.449-3.828-33.9-.468-6.6-1.128-12.355 6.985-13.076 16.538-1.458 31.51-2.232 48.091-2.7 13-.366 13.112 1.638 15.092 12.272 1.938 10.4 3.414 23.4 5.077 32.963l-.051.04Zm-44.857-10.97c-2.8-.859-4.279-5.551-4.375-8.264-.09-2.436.228-5.742 3.415-5.778 2.94 0 4.8 2.724 5.629 5.7.942 3.371.684 9.981-4.669 8.338v.004Z" fill="#111"></path></svg>